<?xml version="1.0" encoding="UTF-8"?>
<!-- Generator: Adobe Illustrator 19.0.0, SVG Export Plug-In . SVG Version: 6.00 Build 0)  -->
<svg version="1.1" id="圖層_1" xmlns="http://www.w3.org/2000/svg" xmlns:xlink="http://www.w3.org/1999/xlink" x="0px" y="0px" viewBox="0 0 87.5619965 27.3839989" style="enable-background:new 0 0 87.5619965 27.3839989;" xml:space="preserve">
<style type="text/css">
	.st0{fill-rule:evenodd;clip-rule:evenodd;fill:#DD0716;}
</style>
<path class="st0" d="M76.6409912,13.7789993c-1.0549927,0.4110031-1.2910004,0.4710007-1.647995,0.564003  c0,0-0.1679993,0.0429993-0.2080078,0.0530014c0.0170135,0.0499954,0.6480103,2.0629959,0.6650085,2.1129951  c1.6119995-0.5909996,3.7440033-1.7099953,5.3220062-2.791996c-0.0020142-0.0270004-0.1670074-2.026001-0.1740112-2.1139984  c-0.6900024,0.5259933-1.0939941,0.8059998-1.7289886,1.1459961l-0.0390015,0.0210037V5.6169968l1.6309967-0.0049973  l0.0099945,0.0940018l0.0019989,0.0230026c0.2669983,2.8429947,0.9020081,5.6469955,1.7430115,7.697998l0.0079956,0.012001  l-0.0110016,0.010994c-0.3919983,0.5020065-1.5509949,1.8250046-2.9830017,2.8790016  c0.7100067,0.5719986,1.4819946,1.0779991,1.723999,1.3009987c1.0209961-0.9039993,1.7610016-1.625,2.2599945-2.2039948  l0.0230103-0.0240021l0.0169983,0.026001c0.7619934,1.1149979,1.6819916,1.7359962,2.526001,1.7069969  c0.6320038-0.0209999,1.0429993-0.4209976,1.3329926-1.2889977c0.1959991-0.6900024,0.2940063-1.1900024,0.4490051-2.6029968  c-0.621994-0.2330017-0.8589935-0.3320007-1.6699982-0.7970047c-0.0610046,1.6669998-0.1609955,2.2669983-0.3809967,2.2720032  c-0.1880035,0.0069962-0.5100098-0.1969986-0.9850006-1.2050018l-0.0059967-0.0110016l0.0059967-0.0110016  c1.5599976-2.3939972,2.2139893-5.7630005,2.3089905-6.0979996C86.7779999,7.3789978,84.92099,6.840004,84.8670044,6.8259964  c-0.0040131,0.0460052-0.2890015,2.3340073-1.2050018,4.239006l-0.0279999,0.0589981l-0.1930084-0.6350021  c-0.4389954-1.4710007-0.6719971-2.8259964-0.8390045-4.8289948l-0.0039978-0.0270004L82.595993,5.6149979h2.1470032  c0.6139984,0,2.0800018,0.0569992,2.1300049,0.0610046V3.5439987c-0.0510101,0.0070038-1.4920044,0.0470047-1.4920044,0.0470047  s1.0980072-1.2930069,1.125-1.326004c-0.7319946-0.8399963-1.1799927-1.223999-2.2369995-2.0209961  c-0.0310059,0.0270004-1.1829987,1.1769943-1.2220001,1.2149963c0.8000031,0.6460037,2.1109924,2.1320038,2.1109924,2.1320038  h-2.7899933L82.3499908,3.038002C82.3099976,1.840004,82.3280029,1.2870026,82.3109894,0  c-0.0559998,0.0029984-2.2389984,0.0800018-2.2929993,0.0830002c0.0950012,1.3619995,0.0950012,1.6149979,0.1580048,2.8059998  l0.0180054,0.2529984l0.0279999,0.4490051h-0.951004c-0.9649963,0-1.9129944,0.0049973-2.6179962-0.0210037  c0.0019989,0.0480042,0.0059967,1.185997,0.0059967,2.064003v8.1380005L76.6409912,13.7789993z M10.6429977,27.3069992h0.848999  v-4.2589989h-0.848999V27.3069992z M8.4469986,24.7700005H5.840004v-1.7220001H5.0130005v4.2589989H5.840004v-1.8440018h2.6069946  v1.8440018H9.288002v-4.2589989H8.4469986V24.7700005z M21.1920013,9.3860016v-2.201004  c-0.7350006,0.0600052-2.848999,0.0950012-2.848999,0.0950012h-3.9080048V3.947998l0.0240021-0.0009995  c3.2490005-0.3809967,5.4059982-0.7809982,6.0680008-1.1579971C20.5,2.7419968,19.3410034,0.697998,19.3209991,0.6579971  c-2.0429993,1.0660019-4.5319977,1.2290039-6.8759995,1.4210052c0,0-0.2369995,0.0179977-0.2770004,0.0209961  c0.0009995,0.0480042,0.0940018,3.2890015,0.0940018,3.2890015c0.0169983,0.9059982,0.0270004,1.7509995,0.0270004,2.5419998  c0,6.4840012-0.197998,8.5270004-3.4810028,10.8810005c0.7070007,0.4869995,1.1340027,0.9959984,1.5350037,1.5179977  c2.8880005-1.8810005,4.0699997-4.6049995,4.0699997-10.7489967V9.3270035h2.0940018v7.8199959  c0,0-0.0490036,2.5519981-0.1060028,3.2319984h2.4209976c-0.0589981-0.737999-0.1049957-3.2319984-0.1049957-3.2339973V9.3610001  C18.7170029,9.3610001,20.6330032,9.3430023,21.1920013,9.3860016 M19.5930023,27.3069992h0.8249969v-4.2589989h-0.8249969  V27.3069992z M21.6070023,25.0589981c0.0339966-0.0329971,2.0979996-2.0109978,2.0979996-2.0109978H22.711998l-0.0019989,0.0019989  c-0.0080032,0.0009995-0.0189972,0.0060005-2.1039963,1.9869995l-0.0310059,0.031002l2.2140045,2.2339973l1.0769958,0.0060005  l-0.0400009-0.0429993C23.8050003,27.2459984,21.8079987,25.2599983,21.6070023,25.0589981 M58.8899994,4.5940018  c0,0,2.1779938,0.0079956,3.9299927,0.0530014v-2.512001c-1.6959991,0.0369949-3.5889893,0.0419998-3.9299927,0.0419998H48.4749985  c-0.3420029,0-0.6949997-0.0050049-2.3889999-0.0419998v2.512001c1.7529984-0.0450058,2.3889999-0.0530014,2.3889999-0.0530014  H58.8899994z M26.3639984,22.9829979c-1.6449966,0-2.3769989,0.6800003-2.3769989,2.1980019  c0,1.5029984,0.7549973,2.2029991,2.3769989,2.2029991c1.612999,0,2.3660049-0.7000008,2.3660049-2.2029991  C28.7300034,23.6629982,27.9990005,22.9829979,26.3639984,22.9829979 M26.3639984,26.704998  c-1.1049957,0-1.5169983-0.4109993-1.5169983-1.5239983c0-0.5680008,0.1080017-0.9430008,0.3420029-1.1759987  c0.234993-0.2340012,0.6079941-0.3420029,1.1749954-0.3420029c0.5680008,0,0.9370041,0.1070023,1.1640015,0.3380013  c0.2259979,0.2280006,0.3320007,0.6030006,0.3320007,1.1800003C27.8600006,26.2939987,27.4540024,26.704998,26.3639984,26.704998   M40.9509964,2.4869995c-0.0429993-0.0250015-2.1319962-1.2809982-2.1779938-1.3079987  c-0.6940002,1.5240021-1.7280045,2.9929962-3.3620071,4.8089981c0.0390015,0.0319977,1.5600052,1.4090042,1.5950012,1.4380035  C38.3549957,6.0810013,39.5810013,4.8619995,40.9509964,2.4869995 M62.0650024,18.7339973  c0,0,0.6369934,0.0060005,2.3880005,0.0540009V16.257c-1.6900024,0.0379982-2.0470123,0.0439987-2.3880005,0.0439987H46.7559967  c-0.3439941,0-0.6969986-0.0060005-2.3909988-0.0439987v2.5309982c1.7519989-0.0480003,2.3909988-0.0540009,2.3909988-0.0540009  H62.0650024z M50.0169983,8.7549973c-0.3440018,0-0.6959991-0.0039978-2.3909988-0.0419998v2.5750046  c1.7529984-0.0459976,2.3909988-0.0530014,2.3909988-0.0530014h8.8730011c0,0,0.6369934,0.0070038,2.3899994,0.0530014V8.7129974  c-1.6959991,0.038002-2.048996,0.0419998-2.3899994,0.0419998H50.0169983z M4.8529968,20.3789978h2.3470001  c-0.0479965-0.6800003-0.0679932-4.2339973-0.0679932-4.2339973l-0.0600052-1.4149971l0.0620041,0.0960007  c0.6650009,1.0130005,1.3349991,1.739994,2.3099976,2.5009956c0.3079987-0.6080017,0.7460022-1.1889992,1.2080002-1.781002  c-1.6050034-1.125-2.8249969-2.6579971-2.8249969-2.6579971s1.1149979-0.0240021,3.1179962,0.0559998v-2.1169968  c-0.0499954,0.0019989-3.7269974,0.0559998-3.7269974,0.0559998V9.1549988c0,0,2.262001-0.0429993,4.0899963,0.0410004V7.1409988  c-0.0499954,0.0009995-2.7220001,0.0200043-2.7220001,0.0200043c0.189003-0.3370056,0.7410049-1.1430054,1.2050018-2.9720001  l0.0039978-0.0200043c0,0,1.2900009,0.0029984,1.3410034,0.0070038V2.125C8.6829987,2.1930008,7.737999,2.185997,7.737999,2.185997  L7.1640015,2.1760025v-0.026001c0,0.026001,0.0039978-1.1860046,0.0680008-1.947998H4.8590012  C4.9150009,0.965004,4.9339981,2.185997,4.9339981,2.185997H4.4020004c0,0-1.1669998,0.0170059-3.5279999-0.0279999V4.177002  c0.052002-0.0050049,1.5-0.0050049,1.5-0.0050049L2.3820038,4.189003c0.6660004,1.3539963,1.1089935,2.9799957,1.1089935,2.9799957  S0.5299988,7.1419983,0.4899979,7.1409988v2.0350037c1.5210037-0.0690002,4.3690033-0.0210037,4.3690033-0.0210037v1.7280045  c0,0-3.5920029-0.0019989-4.1279984-0.0490036v2.1050034c1.1309967-0.0800018,3.4539948-0.0510025,3.4539948-0.0510025  S3.1220016,15.2369995,0,17.4629974c0.5139999,0.4570007,0.9769974,0.8900032,1.3249969,1.6669998  C2.1989975,18.7150002,3.9800034,17.243,4.8460007,15.2490005c0.0749969-0.1699982,0.0960007-0.2850037,0.1060028-0.3180008  l0.0019989,0.3939972C4.9370041,15.625,4.9319992,17.4059982,4.9319992,17.4059982S4.9260025,19.7420006,4.8529968,20.3789978   M4.5849991,4.1620026L4.5699997,4.1279984h3.1040039L7.6660004,4.1589966  c-0.1419983,0.538002-0.473999,1.7130051-1.185997,2.9960022L6.4710007,7.1689987H5.5650024L5.560997,7.1470032  C5.3690033,6.3889999,5.1220016,5.5619965,4.5849991,4.1620026 M29.7679977,6.4369965  c-1.1029968-2.2979965-1.6469955-3.4919968-3.0400009-5.2539978c-0.0379944,0.0220032-2.1459961,1.211998-2.197998,1.2430038  c0.7890015,0.8649979,1.5480042,1.973999,3.211998,5.0049973C27.7860031,7.4110031,29.723999,6.4589996,29.7679977,6.4369965   M2.3840027,24.7739983c-0.5750046-0.1209984-1.0690002-0.2280006-1.0690002-0.5690002  c0-0.3470001,0.3989944-0.5550003,1.0680008-0.5550003c0.4449997,0,0.8659973,0.0699997,1.3679962,0.2300034l0.0480042,0.0139999  l0.1189957-0.6500015l-0.034996-0.0130005c-0.4150009-0.1619987-0.9670029-0.2529984-1.5139999-0.2529984  c-1.3670044,0-1.8530045,0.6529999-1.8530045,1.2630005c0,0.8649979,0.8899994,1.060997,1.6740036,1.2329979  c0.5909958,0.132,1.1019974,0.2439995,1.1019974,0.6069984c0,0.4050026-0.4160004,0.6459999-1.1090012,0.6459999  c-0.5599976,0-1.0479965-0.1169968-1.534996-0.362999L0.5950012,26.336998l-0.1240005,0.6609993l0.0169983,0.007  c0.4780045,0.2510033,1.0439987,0.3790016,1.6800003,0.3790016c1.1860046,0,1.9230042-0.5169983,1.9230042-1.3479996  C4.0910034,25.1310005,3.1849976,24.9409981,2.3840027,24.7739983 M16.4120026,25.7229996  c0,0,0.0069962,0.3159981,0.0130005,0.4290009c-0.0559998-0.0670013-0.1529999-0.1830025-0.2950058-0.3390007l-2.5550003-2.7610016  l-0.7199936-0.0039978v4.2589989h0.7589951v-2.762001c0,0-0.0029984-0.3260002-0.0049973-0.4379997  c0.0530014,0.0699997,0.1480026,0.1840019,0.2860031,0.3440018l2.6179962,2.848999l0.6569977,0.0079994v-4.2599983h-0.7579956  V25.7229996z M63.7910004,25.5330009c0,0.7819977-0.4420013,1.1609993-1.3480072,1.1609993  c-0.9210052,0-1.3690033-0.3790016-1.3690033-1.1609993v-2.4850006h-0.8320007v2.4850006  c0,1.2290001,0.7400055,1.8509979,2.201004,1.8509979c1.4430084,0,2.1759949-0.6219978,2.1759949-1.8509979v-2.4850006h-0.8279877  V25.5330009z M69.9160004,23.0480003h-0.9940033l-0.003006,0.0019989c-0.0090027,0.0009995-0.0179901,0.0060005-2.1019897,1.9869995  l-0.0340118,0.031002l2.2150116,2.2339973l1.0779877,0.0060005c0,0-2.2249908-2.2140007-2.2589874-2.2490005  C67.8519897,25.026001,69.9160004,23.0480003,69.9160004,23.0480003 M65.8040009,27.3069992h0.8239899v-4.2589989h-0.8239899  V27.3069992z M77.6299896,24.7739983c-0.572998-0.1209984-1.0679932-0.2280006-1.0679932-0.5690002  c0-0.3470001,0.3990021-0.5550003,1.0659943-0.5550003c0.4450073,0,0.8660126,0.0699997,1.3690033,0.2300034l0.0480042,0.0139999  l0.1190033-0.6500015l-0.0350037-0.0130005c-0.4160004-0.1619987-0.9680023-0.2529984-1.5130005-0.2529984  c-1.3679962,0-1.8549957,0.6529999-1.8549957,1.2630005c0,0.8649979,0.8919983,1.060997,1.6759949,1.2329979  c0.5910034,0.132,1.102005,0.2439995,1.102005,0.6069984c0,0.4050026-0.4160004,0.6459999-1.1090088,0.6459999  c-0.5609894,0-1.0480042-0.1169968-1.5339966-0.362999l-0.0529938-0.0270004l-0.125,0.6609993l0.0149994,0.007  c0.4809875,0.2510033,1.0469971,0.3790016,1.6819916,0.3790016c1.1860046,0,1.9219971-0.5169983,1.9219971-1.3479996  C79.3369904,25.1310005,78.4319916,24.9409981,77.6299896,24.7739983 M72.5869904,22.9829979  c-1.621994,0-2.3779907,0.6980019-2.3779907,2.1980019c0,1.5029984,0.7559967,2.2029991,2.3779907,2.2029991  c1.6130066,0,2.3630066-0.7000008,2.3630066-2.2029991C74.9499969,23.6629982,74.2220001,22.9829979,72.5869904,22.9829979   M72.5869904,26.704998c-0.5679932,0-0.9420013-0.1069984-1.1749878-0.343998  c-0.2330017-0.2330017-0.3410034-0.6090012-0.3410034-1.1800003c0-0.5680008,0.1080017-0.9430008,0.3410034-1.1759987  c0.2329865-0.2340012,0.6069946-0.3420029,1.1749878-0.3420029c0.5680084,0,0.9380035,0.1070023,1.1630096,0.3380013  c0.2269897,0.2280006,0.3320007,0.6030006,0.3320007,1.1800003C74.0820007,26.2939987,73.677002,26.704998,72.5869904,26.704998   M83.6920013,24.7700005h-2.6040039v-1.7220001h-0.8280029v4.2589989h0.8280029v-1.8440018h2.6040039v1.8440018h0.8399963  v-4.2589989h-0.8399963V24.7700005z M75.7379913,18.1479988c-1.276001-0.1110001-1.8389893-0.3839989-2.6199951-0.7639999  l-0.0899963-0.0439987v-3.8979988h0.772995c0,0,0.9049988,0,1.6560059,0.0479965v-2.0749969  c-1.3140106,0.0400009-1.6560059,0.0429993-1.6590118,0.0429993h-0.769989V9.2549973h0.9810028  c0,0,1.8859863,0.0390015,1.9379883,0.0430069V7.1660004c-0.0540009,0.0049973-1.9749908,0.052002-1.9759979,0.052002h-1.2819977  V5.2770004c0,0,1.0370026-0.0139999,2.7299957,0.0550003V3.1880035c-1.9099884,0.0859985-2.7299957,0.0550003-2.7299957,0.0550003  l0.0090027-1.6850052c0,0,0.052002-1.397995,0.0549927-1.4519958h-2.3439941  c0.0410004,0.4990005,0.0480042,0.9639969,0.0659943,1.4990005l0.0070038,1.6380005c0,0-1.8159943,0.0119934-3.3880005-0.0530014  v2.1349945c2.2519989-0.0809937,3.3880005-0.0479965,3.3880005-0.0479965v1.9410019H68.54599c0,0-0.0379944,0-2.1619873-0.0569992  v2.1489944c1.9729919-0.0539932,2.1459961-0.0550003,2.1469879-0.0550003h2.2860107v6.5840073  c0,0-1.0330048-0.8270035-1.5230103-1.5850067c0.0640106-0.6369934,0.0670013-0.8959961,0.072998-1.2259979  c0,0,0.0850067-1.8740005,0.0920105-1.9169998c-0.0540009-0.0009995-2.1829987-0.072998-2.2429962-0.0769958  c0.0089874,0.0509949,0.0359955,0.560997,0.0359955,0.7619934c0,0.9880066-0.0570068,2.4729996-0.3320007,3.9430008  c-0.2600098,1.2989998-0.5250092,2.4650002-1.1360016,3.6000023c0.6040039,0.2489967,1.0500031,0.461998,1.9949951,1.0599976  c0.6060028-1.3309975,0.9230042-2.4399986,1.2350006-3.7919998l0.0120087-0.0550003l0.0309906,0.0440025  c1.1009979,1.4869995,2.32901,2.4309998,3.6460114,3.0029984c1.3679962,0.5900002,3.3769989,0.8279991,6.9419861,0.8279991  c3.4560089,0,5.427002-0.0239983,7.0170135-0.0879974c0.1100006-0.8790016,0.2350006-1.269001,0.6599884-2.3450012  c-1.6059875,0.1959991-4.0820007,0.3129997-6.6389923,0.3129997C79.1529999,18.3069992,76.8000031,18.2439995,75.7379913,18.1479988   M85.8379974,27.3069992h0.8479919v-4.2589989h-0.8479919V27.3069992z M37.9059982,25.6949997h0.8430023v0.8009987  c-0.302002,0.125-0.7480011,0.2029991-1.2000046,0.2040024c-0.6380005,0.0009995-1.0569992-0.1160011-1.3159943-0.3690033  c-0.2450027-0.2399979-0.3600006-0.6069984-0.3600006-1.1559982c0-1.0919991,0.4899979-1.5169983,1.7459946-1.5169983  c0.5390015,0,1.2330017,0.1019974,1.5780029,0.3349991l0.0510025,0.0369987L39.4150009,23.375l-0.0139999-0.0100021  c-0.4179993-0.2759972-1.2350006-0.3979988-1.8190002-0.3939972c-1.7519989,0.0099983-2.5690002,0.7129974-2.5690002,2.2169991  c0,1.4980011,0.8150024,2.1959991,2.5639954,2.1959991c0.3700027,0,1.2940063-0.0369987,1.8940048-0.3950005l0.0079956-0.0039978  l0.0020065-0.0040016c0.0059967-0.0079994,0.0129929-0.0239983,0.0139999-1.3310013v-0.0589981l-0.0050049,0.0019989  c0.0050049-0.0709991,0.0050049-0.2140007,0.0050049-0.5079994v-0.0429993h-1.5890045V25.6949997z M46.9519958,23.0509987  c-0.0059967,0.0050011-0.0239944,0.0159988-1.6539993,2.9300003c0,0-0.1829987,0.3460007-0.2179947,0.4189987  c-0.0360031-0.0719986-0.1060028-0.2109985-0.2170029-0.4160004l0.0009995,0.0010033  c-0.0009995-0.0050011-0.0589981-0.1060028-1.6080017-2.913002l-0.0099945-0.0149994l-0.9020004-0.0089989v4.2589989h0.7509995  v-2.6829987c0,0-0.0040054-0.2550011-0.0060043-0.3889999c0.0600052,0.125,0.1520004,0.3029976,0.1780014,0.3509979  c0,0-0.0009995-0.0060005-0.0009995-0.0099983c0.0039978,0.0159988,0.1050034,0.1940002,1.5179977,2.7089996l0.0070038,0.012001  l0.5419998,0.0099983l0.0079956-0.0040016c0.0100021-0.0049973,0.0190048-0.0109978,1.6940002-3.0499992  c0,0,0.0200043-0.0340004,0.0340042-0.0620003c-0.0090027,0.1360016-0.0159988,0.3320007-0.0159988,0.3850021v2.730999h0.7649994  v-4.2589989h-0.8610001L46.9519958,23.0509987z M49.1800003,27.3069992h0.848999v-4.2589989h-0.848999V27.3069992z   M57.572998,24.7739983H57.571991c-0.5739899-0.1209984-1.0690002-0.2280006-1.0690002-0.5690002  c0-0.3470001,0.3990021-0.5550003,1.0680084-0.5550003c0.4429932,0,0.8639984,0.0699997,1.3659973,0.2300034l0.0500031,0.0139999  l0.1179962-0.6500015l-0.0339966-0.0130005c-0.4150085-0.1619987-0.9670105-0.2529984-1.5140076-0.2529984  c-1.3669891,0-1.8540039,0.6529999-1.8540039,1.2630005c0,0.8649979,0.8910065,1.060997,1.6730042,1.2329979  c0.5930023,0.132,1.1029968,0.2439995,1.1029968,0.6069984c0,0.4050026-0.4139862,0.6459999-1.1079865,0.6459999  c-0.5590057,0-1.0470123-0.1169968-1.5350037-0.362999l-0.053009-0.0270004l-0.1269989,0.6609993l0.0180054,0.007  c0.4810028,0.2510033,1.0469971,0.3790016,1.6829987,0.3790016c1.1860046,0,1.9219971-0.5169983,1.9219971-1.3479996  C59.2789917,25.1310005,58.3730011,24.9409981,57.572998,24.7739983 M33.2750015,25.7229996  c0,0,0.0089951,0.3190002,0.0110016,0.4290009c-0.0540009-0.0670013-0.1529999-0.1830025-0.2930069-0.3390007  c-0.0159988-0.0170021-2.522995-2.723999-2.548996-2.7509995l-0.0070038-0.0100021l-0.7199936-0.0039978v4.2589989h0.7599945  v-2.762001c0,0-0.0029984-0.3260002-0.0069962-0.4379997c0.0559998,0.0699997,0.151001,0.1840019,0.2890015,0.3440018  c0,0-0.0050049-0.0040016-0.0050049-0.0060005c0.0090027,0.0130005,0.1409988,0.1539993,2.6160049,2.848999l0.0069962,0.0060005  l0.6579971,0.0079994v-4.2599983h-0.7599945V25.7229996z M40.5390015,15.0289993  c-0.003006,0.0690002-0.0299988,1.0180016-0.0299988,1.0180016c-0.029007,1.125-0.029007,1.4049988-0.2280045,1.7849998h-0.0009995  c-0.1800003,0.3809967-0.5500031,0.5509987-2.1139984,0.5509987c-1.8499985,0-2.1679993-0.0359993-2.1679993-0.6549988v-7.6769981  h4.1230011c0.1969986,0,1.0809937,0,2.3989944,0.0690002V7.8939972c-1.848999,0.064003-2.4440002,0.064003-2.4440002,0.064003  h-6.0069962V2.5289993c0.0019989-0.5449982,0-0.8399963,0.0859985-2.2919998h-2.6520004  c0.0999985,1.5019989,0.1060028,2.1009979,0.0999985,2.2919998v5.4290009h-6.4819946c0,0-0.6920013,0-2.3100052-0.0530014v2.2000046  c1.5340042-0.0419998,2.2919998-0.0540009,2.3610001-0.0540009h4.0279999c0,0-0.0479965,1.1790009-0.1139984,1.6159973  c-0.2480011,1.6350021-0.6500015,3.1230011-1.5139999,4.1419983c-1.0230026,1.2050018-2.5550003,2.0960007-5.1289978,2.7800026  c0.0250015,0.0399971,0.836998,1.2139969,1.3190002,2.1149979c1.5169983-0.5109978,2.7799988-0.9379997,3.848999-1.7560005  c1.673996-1.2649994,2.6679993-2.6559982,3.223999-4.5139999c0.4449997-1.371994,0.5660019-2.5550003,0.6320038-4.3569946v-0.026001  h2.1769943v8.1609955c0,1.8810005,1.4729996,2.2610016,4.112999,2.2610016c2.6960068,0,3.2450027-0.1329994,3.8500061-0.6240005  c0.7709961-0.6150017,0.9699936-1.3069992,1.1749954-4.0999985C41.9649963,15.5839996,41.586998,15.4790039,40.5390015,15.0289993   M50.9260025,23.7339973h1.6749954v3.5730019h0.8410034v-3.5730019h1.6769867v-0.685997h-4.1929855V23.7339973z"/>
</svg>